<?xml version="1.0" encoding="UTF-8"?>
<!DOCTYPE svg PUBLIC "-//W3C//DTD SVG 1.1//EN" "http://www.w3.org/Graphics/SVG/1.1/DTD/svg11.dtd">
<svg xmlns="http://www.w3.org/2000/svg" version="1.1" width="500px" height="500px" stroke="green" stroke-width="4" fill="currentColor" style="shape-rendering:geometricPrecision; text-rendering:geometricPrecision; image-rendering:optimizeQuality; fill-rule:evenodd; clip-rule:evenodd" xmlns:xlink="http://www.w3.org/1999/xlink">
<g><path style="opacity:0.431" fill="#4f4f4f" d="M 241.5,132.5 C 238.727,133.657 235.727,134.324 232.5,134.5C 235.077,133.028 237.911,132.028 241,131.5C 241.399,131.728 241.565,132.062 241.5,132.5 Z"/></g>
<g><path style="opacity:0.263" fill="#4b4a4a" d="M 275.5,133.5 C 276.962,132.529 278.295,132.862 279.5,134.5C 278.041,134.567 276.708,134.234 275.5,133.5 Z"/></g>
<g><path style="opacity:0.49" fill="#4c4b4c" d="M 221.5,136.5 C 220.07,137.537 218.403,138.204 216.5,138.5C 217.622,137.053 219.122,136.053 221,135.5C 221.399,135.728 221.565,136.062 221.5,136.5 Z"/></g>
<g><path style="opacity:1" fill="#6d6b6c" d="M 290.5,136.5 C 289.178,136.33 288.011,136.663 287,137.5C 285.351,136.047 283.518,135.047 281.5,134.5C 281.435,134.062 281.601,133.728 282,133.5C 285.025,134.194 287.858,135.194 290.5,136.5 Z"/></g>
<g><path style="opacity:1" fill="#757475" d="M 290.5,136.5 C 292.553,136.402 294.22,137.069 295.5,138.5C 294.178,138.33 293.011,138.663 292,139.5C 291.487,138.473 290.987,137.473 290.5,136.5 Z"/></g>
<g><path style="opacity:0.071" fill="#2f2e2f" d="M 301.5,142.5 C 302.906,142.973 303.573,143.973 303.5,145.5C 302.094,145.027 301.427,144.027 301.5,142.5 Z"/></g>
<g><path style="opacity:0.384" fill="#3f3f3f" d="M 194.5,148.5 C 194.027,149.906 193.027,150.573 191.5,150.5C 191.973,149.094 192.973,148.427 194.5,148.5 Z"/></g>
<g><path style="opacity:0.999" fill="#e2dfe0" d="M 275.5,133.5 C 276.708,134.234 278.041,134.567 279.5,134.5C 280.167,134.5 280.833,134.5 281.5,134.5C 283.518,135.047 285.351,136.047 287,137.5C 288.011,136.663 289.178,136.33 290.5,136.5C 290.987,137.473 291.487,138.473 292,139.5C 293.011,138.663 294.178,138.33 295.5,138.5C 298.337,138.684 300.337,140.018 301.5,142.5C 301.427,144.027 302.094,145.027 303.5,145.5C 303.889,149.414 303.222,153.08 301.5,156.5C 301.5,157.167 301.167,157.5 300.5,157.5C 296.192,158.65 291.859,158.65 287.5,157.5C 285.485,156.076 283.152,155.41 280.5,155.5C 276.803,154.992 273.136,154.326 269.5,153.5C 264.935,151.96 260.102,151.293 255,151.5C 249.257,151.358 243.757,152.025 238.5,153.5C 235.781,154.913 232.781,155.58 229.5,155.5C 226.848,155.41 224.515,156.076 222.5,157.5C 215.872,160.814 209.205,164.147 202.5,167.5C 200.973,167.427 199.973,168.094 199.5,169.5C 197.973,169.427 196.973,170.094 196.5,171.5C 189.202,177.131 182.535,183.464 176.5,190.5C 177.994,186.723 178.661,182.723 178.5,178.5C 175.135,178.255 171.968,178.922 169,180.5C 167.739,180.241 166.739,179.574 166,178.5C 164.951,179.517 163.784,179.684 162.5,179C 164.595,178.444 164.762,177.944 163,177.5C 161.218,178.967 159.385,180.301 157.5,181.5C 158.419,178.911 160.086,176.911 162.5,175.5C 164.262,174.738 165.262,173.404 165.5,171.5C 166.473,169.861 167.806,168.527 169.5,167.5C 172.764,165.906 175.431,163.573 177.5,160.5C 180.321,156.68 183.988,154.013 188.5,152.5C 190.027,152.573 191.027,151.906 191.5,150.5C 193.027,150.573 194.027,149.906 194.5,148.5C 201.336,143.404 208.669,140.07 216.5,138.5C 218.403,138.204 220.07,137.537 221.5,136.5C 225.047,134.354 228.713,133.687 232.5,134.5C 235.727,134.324 238.727,133.657 241.5,132.5C 252.926,131.062 264.259,131.395 275.5,133.5 Z"/></g>
<g><path style="opacity:0.51" fill="#504f50" d="M 191.5,150.5 C 191.027,151.906 190.027,152.573 188.5,152.5C 188.973,151.094 189.973,150.427 191.5,150.5 Z"/></g>
<g><path style="opacity:0.051" fill="#353433" d="M 269.5,153.5 C 259.171,152.255 248.837,152.255 238.5,153.5C 243.757,152.025 249.257,151.358 255,151.5C 260.102,151.293 264.935,151.96 269.5,153.5 Z"/></g>
<g><path style="opacity:0.004" fill="#20221d" d="M 303.5,145.5 C 304.638,148.304 304.805,151.304 304,154.5C 303.583,155.756 302.75,156.423 301.5,156.5C 303.222,153.08 303.889,149.414 303.5,145.5 Z"/></g>
<g><path style="opacity:0.024" fill="#262324" d="M 229.5,155.5 C 227.485,156.924 225.152,157.59 222.5,157.5C 224.515,156.076 226.848,155.41 229.5,155.5 Z"/></g>
<g><path style="opacity:0.031" fill="#313131" d="M 280.5,155.5 C 283.152,155.41 285.485,156.076 287.5,157.5C 284.848,157.59 282.515,156.924 280.5,155.5 Z"/></g>
<g><path style="opacity:0.263" fill="#4b494a" d="M 287.5,157.5 C 291.859,158.65 296.192,158.65 300.5,157.5C 300.389,158.117 300.056,158.617 299.5,159C 297.833,159.167 296.167,159.333 294.5,159.5C 291.795,159.684 289.462,159.017 287.5,157.5 Z"/></g>
<g><path style="opacity:0.686" fill="#6d6d6d" d="M 342.5,163.5 C 337.833,163.5 333.167,163.5 328.5,163.5C 329.878,162.766 331.378,162.099 333,161.5C 335,162.833 337,162.833 339,161.5C 340.302,162.085 341.469,162.751 342.5,163.5 Z"/></g>
<g><path style="opacity:0.451" fill="#575757" d="M 177.5,160.5 C 175.431,163.573 172.764,165.906 169.5,167.5C 171.569,164.427 174.236,162.094 177.5,160.5 Z"/></g>
<g><path style="opacity:0.02" fill="#1d1d1d" d="M 344.5,164.5 C 346.027,164.427 347.027,165.094 347.5,166.5C 345.973,166.573 344.973,165.906 344.5,164.5 Z"/></g>
<g><path style="opacity:0.016" fill="#201f20" d="M 268.5,167.5 C 265.615,167.806 262.948,167.473 260.5,166.5C 260.435,166.062 260.601,165.728 261,165.5C 263.607,166.123 266.107,166.79 268.5,167.5 Z"/></g>
<g><path style="opacity:0.027" fill="#363434" d="M 202.5,167.5 C 202.027,168.906 201.027,169.573 199.5,169.5C 199.973,168.094 200.973,167.427 202.5,167.5 Z"/></g>
<g><path style="opacity:0.49" fill="#434242" d="M 236.5,168.5 C 234.698,169.458 232.698,170.125 230.5,170.5C 230.611,169.883 230.944,169.383 231.5,169C 233.101,168.727 234.601,168.227 236,167.5C 236.399,167.728 236.565,168.062 236.5,168.5 Z"/></g>
<g><path style="opacity:0.106" fill="#1e1b1e" d="M 328.5,163.5 C 326.192,165.471 323.858,167.471 321.5,169.5C 322.578,166.092 324.911,164.092 328.5,163.5 Z"/></g>
<g><path style="opacity:0.997" fill="#e7e4e5" d="M 328.5,163.5 C 333.167,163.5 337.833,163.5 342.5,163.5C 343.167,163.833 343.833,164.167 344.5,164.5C 344.973,165.906 345.973,166.573 347.5,166.5C 352.001,169.979 354.001,174.646 353.5,180.5C 351.609,194.543 343.609,200.377 329.5,198C 325.769,196.989 323.102,194.823 321.5,191.5C 319.768,185.667 319.101,179.667 319.5,173.5C 319.66,171.847 320.326,170.514 321.5,169.5C 323.858,167.471 326.192,165.471 328.5,163.5 Z"/></g>
<g><path style="opacity:0.039" fill="#352c2c" d="M 199.5,169.5 C 199.027,170.906 198.027,171.573 196.5,171.5C 196.973,170.094 197.973,169.427 199.5,169.5 Z"/></g>
<g><path style="opacity:0.22" fill="#393132" d="M 228.5,170.5 C 227.486,171.674 226.153,172.34 224.5,172.5C 225.315,171.163 226.482,170.163 228,169.5C 228.399,169.728 228.565,170.062 228.5,170.5 Z"/></g>
<g><path style="opacity:1" fill="#6c6b6b" d="M 272.5,168.5 C 275.152,168.41 277.485,169.076 279.5,170.5C 277.856,170.286 276.356,170.62 275,171.5C 274.302,170.309 273.469,169.309 272.5,168.5 Z"/></g>
<g><path style="opacity:0.467" fill="#4d4b4b" d="M 165.5,171.5 C 165.262,173.404 164.262,174.738 162.5,175.5C 162.738,173.596 163.738,172.262 165.5,171.5 Z"/></g>
<g><path style="opacity:0.337" fill="#444243" d="M 223.5,172.5 C 222.486,173.674 221.153,174.34 219.5,174.5C 220.315,173.163 221.482,172.163 223,171.5C 223.399,171.728 223.565,172.062 223.5,172.5 Z"/></g>
<g><path style="opacity:0.975" fill="#8c8c8c" d="M 279.5,170.5 C 282.912,171.042 285.912,172.375 288.5,174.5C 285.728,175.371 283.062,175.371 280.5,174.5C 280.567,173.041 280.234,171.708 279.5,170.5 Z"/></g>
<g><path style="opacity:0.439" fill="#555455" d="M 218.5,174.5 C 217.514,176.408 215.848,177.408 213.5,177.5C 214.659,175.75 216.326,174.75 218.5,174.5 Z"/></g>
<g><path style="opacity:0.027" fill="#272726" d="M 297.5,179.5 C 300.167,180.167 301.833,181.833 302.5,184.5C 300.5,183.167 298.833,181.5 297.5,179.5 Z"/></g>
<g><path style="opacity:0.722" fill="#7a7879" d="M 319.5,173.5 C 319.101,179.667 319.768,185.667 321.5,191.5C 317.169,185.858 316.502,179.858 319.5,173.5 Z"/></g>
<g><path style="opacity:0.141" fill="#464545" d="M 155.5,184.5 C 155.573,186.027 154.906,187.027 153.5,187.5C 153.427,185.973 154.094,184.973 155.5,184.5 Z"/></g>
<g><path style="opacity:0.514" fill="#4b484a" d="M 202.5,184.5 C 201.415,186.587 199.749,187.92 197.5,188.5C 198.585,186.413 200.251,185.08 202.5,184.5 Z"/></g>
<g><path style="opacity:0.118" fill="#434242" d="M 153.5,187.5 C 153.573,189.027 152.906,190.027 151.5,190.5C 151.427,188.973 152.094,187.973 153.5,187.5 Z"/></g>
<g><path style="opacity:1" fill="#ebe5e7" d="M 176.5,190.5 C 174.946,194.386 172.613,197.719 169.5,200.5C 168.883,200.611 168.383,200.944 168,201.5C 167.163,199.993 165.996,199.493 164.5,200C 163.288,201.566 163.288,203.566 164.5,206C 160.662,209.928 158.996,214.761 159.5,220.5C 158.076,222.515 157.41,224.848 157.5,227.5C 155.941,230.868 155.108,234.535 155,238.5C 154.178,246.345 154.344,254.011 155.5,261.5C 156.462,273.385 159.462,284.718 164.5,295.5C 165.079,298.331 166.412,300.664 168.5,302.5C 190.968,337.067 222.968,353.067 264.5,350.5C 265.785,356.828 265.785,363.161 264.5,369.5C 264.182,370.647 263.516,371.481 262.5,372C 235.58,373.686 210.58,367.686 187.5,354C 184.31,351.636 181.31,349.136 178.5,346.5C 173.14,340.473 167.473,334.806 161.5,329.5C 152.883,317.27 145.55,304.27 139.5,290.5C 138.769,285.562 137.435,280.895 135.5,276.5C 134.188,261.168 134.188,245.835 135.5,230.5C 137.102,226.761 138.102,222.761 138.5,218.5C 138.557,217.391 138.89,216.391 139.5,215.5C 140.966,214.653 141.8,213.32 142,211.5C 142.654,212.696 143.154,212.696 143.5,211.5C 143.08,209.674 143.08,207.674 143.5,205.5C 145.407,200.016 148.073,195.016 151.5,190.5C 152.906,190.027 153.573,189.027 153.5,187.5C 154.906,187.027 155.573,186.027 155.5,184.5C 155.932,183.29 156.599,182.29 157.5,181.5C 159.385,180.301 161.218,178.967 163,177.5C 164.762,177.944 164.595,178.444 162.5,179C 163.784,179.684 164.951,179.517 166,178.5C 166.739,179.574 167.739,180.241 169,180.5C 171.968,178.922 175.135,178.255 178.5,178.5C 178.661,182.723 177.994,186.723 176.5,190.5 Z"/></g>
<g><path style="opacity:0.231" fill="#393939" d="M 197.5,188.5 C 196.581,191.089 194.914,193.089 192.5,194.5C 193.419,191.911 195.086,189.911 197.5,188.5 Z"/></g>
<g><path style="opacity:1" fill="#b1aeab" d="M 169.5,200.5 C 166.147,207.205 162.814,213.872 159.5,220.5C 158.996,214.761 160.662,209.928 164.5,206C 163.288,203.566 163.288,201.566 164.5,200C 165.996,199.493 167.163,199.993 168,201.5C 168.383,200.944 168.883,200.611 169.5,200.5 Z"/></g>
<g><path style="opacity:0.412" fill="#565656" d="M 257.5,206.5 C 254.43,206.368 251.43,206.701 248.5,207.5C 251.285,204.334 254.285,204.001 257.5,206.5 Z"/></g>
<g><path style="opacity:0.998" fill="#ece7e9" d="M 260.5,166.5 C 262.948,167.473 265.615,167.806 268.5,167.5C 269.833,167.833 271.167,168.167 272.5,168.5C 273.469,169.309 274.302,170.309 275,171.5C 276.356,170.62 277.856,170.286 279.5,170.5C 280.234,171.708 280.567,173.041 280.5,174.5C 283.062,175.371 285.728,175.371 288.5,174.5C 291.992,175.41 294.992,177.076 297.5,179.5C 298.833,181.5 300.5,183.167 302.5,184.5C 306.387,193.153 303.72,198.819 294.5,201.5C 291.069,200.921 288.069,199.587 285.5,197.5C 279.364,191.942 272.031,188.775 263.5,188C 256.167,187.333 248.833,187.333 241.5,188C 237.532,189.038 233.865,190.538 230.5,192.5C 214.475,199.859 202.808,211.525 195.5,227.5C 194.069,228.78 193.402,230.447 193.5,232.5C 193.279,235.067 192.612,237.401 191.5,239.5C 190.078,243.239 189.411,247.239 189.5,251.5C 189.503,254.025 189.837,256.359 190.5,258.5C 190.159,262.16 190.825,265.493 192.5,268.5C 192.171,271.228 192.837,273.562 194.5,275.5C 196.403,278.979 198.07,282.646 199.5,286.5C 199.738,288.404 200.738,289.738 202.5,290.5C 206.167,294.833 210.167,298.833 214.5,302.5C 214.973,303.906 215.973,304.573 217.5,304.5C 218.167,304.5 218.5,304.833 218.5,305.5C 218.973,306.906 219.973,307.573 221.5,307.5C 222.189,308.707 222.355,310.041 222,311.5C 224.181,312.702 226.681,312.702 229.5,311.5C 232.397,312.129 235.064,313.129 237.5,314.5C 239.102,316.074 241.102,316.741 243.5,316.5C 244.179,281.294 244.846,245.961 245.5,210.5C 246.833,209.833 247.833,208.833 248.5,207.5C 251.43,206.701 254.43,206.368 257.5,206.5C 258.791,206.263 259.791,206.596 260.5,207.5C 260.738,209.404 261.738,210.738 263.5,211.5C 263.5,253.5 263.5,295.5 263.5,337.5C 233.53,339.943 208.364,329.943 188,307.5C 185.92,304.935 184.087,302.268 182.5,299.5C 172.83,282.15 168.497,263.483 169.5,243.5C 169.5,243.167 169.5,242.833 169.5,242.5C 170.913,239.781 171.58,236.781 171.5,233.5C 173.277,230.495 174.277,227.162 174.5,223.5C 175.411,219.076 177.078,215.076 179.5,211.5C 180.906,211.027 181.573,210.027 181.5,208.5C 182.906,208.027 183.573,207.027 183.5,205.5C 186.129,201.537 189.129,197.871 192.5,194.5C 194.914,193.089 196.581,191.089 197.5,188.5C 199.749,187.92 201.415,186.587 202.5,184.5C 205.672,181.413 209.338,179.079 213.5,177.5C 215.848,177.408 217.514,176.408 218.5,174.5C 218.833,174.5 219.167,174.5 219.5,174.5C 221.153,174.34 222.486,173.674 223.5,172.5C 223.833,172.5 224.167,172.5 224.5,172.5C 226.153,172.34 227.486,171.674 228.5,170.5C 229.167,170.5 229.833,170.5 230.5,170.5C 232.698,170.125 234.698,169.458 236.5,168.5C 240.116,167.653 243.782,166.653 247.5,165.5C 251.765,166.439 256.098,166.772 260.5,166.5 Z"/></g>
<g><path style="opacity:0.294" fill="#9d9c9c" d="M 285.5,197.5 C 267.849,188.862 249.516,187.196 230.5,192.5C 233.865,190.538 237.532,189.038 241.5,188C 248.833,187.333 256.167,187.333 263.5,188C 272.031,188.775 279.364,191.942 285.5,197.5 Z"/></g>
<g><path style="opacity:0.137" fill="#4c4c4b" d="M 183.5,205.5 C 183.573,207.027 182.906,208.027 181.5,208.5C 181.427,206.973 182.094,205.973 183.5,205.5 Z"/></g>
<g><path style="opacity:0.369" fill="#3c3b3b" d="M 260.5,207.5 C 262.262,208.262 263.262,209.596 263.5,211.5C 261.738,210.738 260.738,209.404 260.5,207.5 Z"/></g>
<g><path style="opacity:0.18" fill="#3c3838" d="M 248.5,207.5 C 247.833,208.833 246.833,209.833 245.5,210.5C 245.5,208.5 246.5,207.5 248.5,207.5 Z"/></g>
<g><path style="opacity:0.082" fill="#383738" d="M 181.5,208.5 C 181.573,210.027 180.906,211.027 179.5,211.5C 179.427,209.973 180.094,208.973 181.5,208.5 Z"/></g>
<g><path style="opacity:1" fill="#9e9d9d" d="M 143.5,205.5 C 143.08,207.674 143.08,209.674 143.5,211.5C 143.154,212.696 142.654,212.696 142,211.5C 141.8,213.32 140.966,214.653 139.5,215.5C 140.263,211.863 141.597,208.53 143.5,205.5 Z"/></g>
<g><path style="opacity:0.325" fill="#363536" d="M 311.5,212.5 C 309.228,213.319 306.894,213.985 304.5,214.5C 306.081,212.914 308.081,211.914 310.5,211.5C 311.107,211.624 311.44,211.957 311.5,212.5 Z"/></g>
<g><path style="opacity:0.463" fill="#434343" d="M 303.5,214.5 C 302.791,215.404 301.791,215.737 300.5,215.5C 301.172,214.733 302.005,214.066 303,213.5C 303.399,213.728 303.565,214.062 303.5,214.5 Z"/></g>
<g><path style="opacity:0.999" fill="#e5e0e2" d="M 311.5,212.5 C 323.644,211.493 334.144,215.16 343,223.5C 345.157,225.817 346.657,228.484 347.5,231.5C 347.66,233.153 348.326,234.486 349.5,235.5C 349.56,238.341 350.226,241.007 351.5,243.5C 353.712,259.788 348.045,273.122 334.5,283.5C 336.11,285.725 337.443,288.059 338.5,290.5C 338.926,294.427 339.926,298.093 341.5,301.5C 341.5,301.833 341.5,302.167 341.5,302.5C 341.138,306.081 342.138,309.081 344.5,311.5C 347.768,315.271 351.268,318.938 355,322.5C 357.67,330.485 355.003,335.819 347,338.5C 337.264,335.963 329.931,330.296 325,321.5C 321.541,311.869 318.208,302.202 315,292.5C 311.708,289.68 307.875,288.347 303.5,288.5C 303.962,313.885 303.462,339.218 302,364.5C 295.333,371.167 288.667,371.167 282,364.5C 280.35,322.893 280.017,281.226 281,239.5C 281.39,236.896 282.224,234.562 283.5,232.5C 284.397,231.402 285.23,231.402 286,232.5C 286.323,229.666 287.157,226.999 288.5,224.5C 291.646,220.353 295.646,217.353 300.5,215.5C 301.791,215.737 302.791,215.404 303.5,214.5C 303.833,214.5 304.167,214.5 304.5,214.5C 306.894,213.985 309.228,213.319 311.5,212.5 Z M 321.5,265.5 C 315.545,266.363 309.545,266.697 303.5,266.5C 303.22,257.114 303.553,247.78 304.5,238.5C 311.906,232.001 319.406,232.001 327,238.5C 333.108,249.32 331.275,258.32 321.5,265.5 Z"/></g>
<g><path style="opacity:0.369" fill="#575155" d="M 138.5,218.5 C 138.102,222.761 137.102,226.761 135.5,230.5C 135.584,226.163 136.584,222.163 138.5,218.5 Z"/></g>
<g><path style="opacity:0.024" fill="#313131" d="M 159.5,220.5 C 159.59,223.152 158.924,225.485 157.5,227.5C 157.41,224.848 158.076,222.515 159.5,220.5 Z"/></g>
<g><path style="opacity:0.698" fill="#6d6b6d" d="M 174.5,223.5 C 174.277,227.162 173.277,230.495 171.5,233.5C 171.723,229.838 172.723,226.505 174.5,223.5 Z"/></g>
<g><path style="opacity:0.125" fill="#4d4a4d" d="M 195.5,227.5 C 195.598,229.553 194.931,231.22 193.5,232.5C 193.402,230.447 194.069,228.78 195.5,227.5 Z"/></g>
<g><path style="opacity:0.984" fill="#8f8b8d" d="M 288.5,224.5 C 287.157,226.999 286.323,229.666 286,232.5C 285.23,231.402 284.397,231.402 283.5,232.5C 284.169,229.151 285.836,226.484 288.5,224.5 Z"/></g>
<g><path style="opacity:0.067" fill="#373637" d="M 347.5,231.5 C 349.104,232.287 349.771,233.62 349.5,235.5C 348.326,234.486 347.66,233.153 347.5,231.5 Z"/></g>
<g><path style="opacity:0.455" fill="#5a565d" d="M 171.5,233.5 C 171.58,236.781 170.913,239.781 169.5,242.5C 169.42,239.219 170.087,236.219 171.5,233.5 Z"/></g>
<g><path style="opacity:0.765" fill="#656364" d="M 349.5,235.5 C 350.67,237.65 351.67,239.984 352.5,242.5C 352.376,243.107 352.043,243.44 351.5,243.5C 350.226,241.007 349.56,238.341 349.5,235.5 Z"/></g>
<g><path style="opacity:0.628" fill="#bdb9ba" d="M 245.5,210.5 C 244.846,245.961 244.179,281.294 243.5,316.5C 243.5,282.833 243.5,249.167 243.5,215.5C 243.12,213.302 243.787,211.635 245.5,210.5 Z"/></g>
<g><path style="opacity:0.024" fill="#2b2929" d="M 304.5,238.5 C 303.553,247.78 303.22,257.114 303.5,266.5C 309.545,266.697 315.545,266.363 321.5,265.5C 321.082,266.222 320.416,266.722 319.5,267C 313.843,267.499 308.176,267.666 302.5,267.5C 302.334,258.161 302.5,248.827 303,239.5C 303.383,238.944 303.883,238.611 304.5,238.5 Z"/></g>
<g><path style="opacity:0.118" fill="#5f5b5b" d="M 191.5,239.5 C 190.89,245.815 190.557,252.149 190.5,258.5C 189.837,256.359 189.503,254.025 189.5,251.5C 189.411,247.239 190.078,243.239 191.5,239.5 Z"/></g>
<g><path style="opacity:0.25" fill="#69686a" d="M 135.5,230.5 C 134.188,245.835 134.188,261.168 135.5,276.5C 133.949,269.066 133.282,261.4 133.5,253.5C 133.282,245.6 133.949,237.934 135.5,230.5 Z"/></g>
<g><path style="opacity:0.037" fill="#323030" d="M 157.5,227.5 C 155.867,238.764 155.2,250.097 155.5,261.5C 154.344,254.011 154.178,246.345 155,238.5C 155.108,234.535 155.941,230.868 157.5,227.5 Z"/></g>
<g><path style="opacity:0.067" fill="#333331" d="M 190.5,258.5 C 191.581,261.627 192.247,264.96 192.5,268.5C 190.825,265.493 190.159,262.16 190.5,258.5 Z"/></g>
<g><path style="opacity:0.071" fill="#434243" d="M 243.5,215.5 C 243.5,249.167 243.5,282.833 243.5,316.5C 241.102,316.741 239.102,316.074 237.5,314.5C 239.167,314.5 240.833,314.5 242.5,314.5C 242.168,281.329 242.502,248.329 243.5,215.5 Z"/></g>
<g><path style="opacity:0.573" fill="#575657" d="M 192.5,268.5 C 193.612,270.599 194.279,272.933 194.5,275.5C 192.837,273.562 192.171,271.228 192.5,268.5 Z"/></g>
<g><path style="opacity:0.065" fill="#878686" d="M 135.5,276.5 C 137.435,280.895 138.769,285.562 139.5,290.5C 137.256,286.207 135.923,281.54 135.5,276.5 Z"/></g>
<g><path style="opacity:0.141" fill="#7b7a7c" d="M 169.5,243.5 C 168.497,263.483 172.83,282.15 182.5,299.5C 179.611,296.744 177.444,293.411 176,289.5C 169.469,274.62 167.303,259.287 169.5,243.5 Z"/></g>
<g><path style="opacity:0.224" fill="#4d4d4d" d="M 199.5,286.5 C 201.262,287.262 202.262,288.596 202.5,290.5C 200.738,289.738 199.738,288.404 199.5,286.5 Z"/></g>
<g><path style="opacity:0.551" fill="#737172" d="M 263.5,211.5 C 264.29,212.609 264.79,213.942 265,215.5C 265.667,255.833 265.667,296.167 265,336.5C 264.617,337.056 264.117,337.389 263.5,337.5C 263.5,295.5 263.5,253.5 263.5,211.5 Z"/></g>
<g><path style="opacity:0.486" fill="#787576" d="M 338.5,290.5 C 340.483,293.799 341.483,297.466 341.5,301.5C 339.926,298.093 338.926,294.427 338.5,290.5 Z"/></g>
<g><path style="opacity:0.012" fill="#5a5859" d="M 164.5,295.5 C 166.588,297.336 167.921,299.669 168.5,302.5C 166.412,300.664 165.079,298.331 164.5,295.5 Z"/></g>
<g><path style="opacity:0.078" fill="#313030" d="M 214.5,302.5 C 216.027,302.427 217.027,303.094 217.5,304.5C 215.973,304.573 214.973,303.906 214.5,302.5 Z"/></g>
<g><path style="opacity:0.082" fill="#2a292a" d="M 218.5,305.5 C 220.027,305.427 221.027,306.094 221.5,307.5C 219.973,307.573 218.973,306.906 218.5,305.5 Z"/></g>
<g><path style="opacity:0.663" fill="#757474" d="M 341.5,302.5 C 342.669,305.341 343.669,308.341 344.5,311.5C 342.138,309.081 341.138,306.081 341.5,302.5 Z"/></g>
<g><path style="opacity:0.982" fill="#9c9a9e" d="M 221.5,307.5 C 224.485,308.326 227.151,309.659 229.5,311.5C 226.681,312.702 224.181,312.702 222,311.5C 222.355,310.041 222.189,308.707 221.5,307.5 Z"/></g>
<g><path style="opacity:0.247" fill="#a09ea0" d="M 139.5,290.5 C 145.55,304.27 152.883,317.27 161.5,329.5C 156.764,325.255 152.931,320.255 150,314.5C 145.657,306.819 142.157,298.819 139.5,290.5 Z"/></g>
<g><path style="opacity:0.29" fill="#acaaab" d="M 161.5,329.5 C 167.473,334.806 173.14,340.473 178.5,346.5C 171.833,341.833 166.167,336.167 161.5,329.5 Z"/></g>
</svg>
