<svg width="1191" height="805" viewBox="0 0 1191 805" fill="none" xmlns="http://www.w3.org/2000/svg">
<g filter="url(#filter0_d_0_1)">
<path d="M5 158.701L104.957 109.478M5 158.701L104.957 199.576M5 158.701V236.051L104.957 280M104.957 109.478L196.222 149.911M104.957 109.478L196.222 62.0127M196.222 149.911L104.957 199.576M196.222 149.911L291.832 100.688M196.222 149.911V179.47M196.222 149.911C364.844 66.935 368.611 64.3567 349.416 73.4395M104.957 199.576C104.957 213.64 104.957 280 104.957 280M104.957 199.576V280M104.957 199.576C177.969 163.011 259.962 117.096 291.832 100.688M104.957 199.576L407 46.1911M104.957 280L126.631 267.205M291.832 100.688L196.222 62.0127M291.832 100.688V126.464M291.832 100.688L349.416 73.4395M196.222 62.0127L315.735 4L407 46.1911M407 46.1911L349.416 73.4395M407 46.1911V73.4395" stroke="#DD2D4D" shape-rendering="crispEdges"/>
</g>
<path d="M123.728 213.044L236.795 261.312M123.728 213.044L123.728 305.163L236.795 353.468M123.728 213.044L245.592 153.512M236.795 261.312L340.322 213.044M236.795 261.312L326.147 305.163M236.795 261.312L236.795 353.468M516.173 116.969L426.706 65.8094L340.322 106.006M516.173 116.969L434.491 162.125M516.173 116.969L615.317 171.783M434.491 162.125L340.322 213.044M434.491 162.125L426.706 261.312M434.491 162.125L528.168 213.044M434.491 162.125L340.322 106.006M340.322 106.006L245.592 153.512M245.592 153.512L340.322 213.044M340.322 213.044L426.706 261.312M426.706 261.312C394.261 280.42 326.147 305.163 326.147 305.163M426.706 261.312L326.147 305.163M426.706 261.312L426.706 353.468L326.147 392.832M426.706 261.312L528.168 305.163M326.147 305.163L326.147 392.832M326.147 392.832L236.795 353.468M615.317 171.783L528.168 213.044M615.317 171.783L615.317 261.312L528.168 305.163M528.168 213.044L528.168 305.163" stroke="#DD2D4D"/>
<path d="M334 337.667L424.705 390.767M334 337.667V425.557L424.705 469.502M334 337.667L414.398 303.512L424.705 298.679M695.789 257.1C695.789 257.1 641.847 219.869 616.422 204L513.348 257.1M695.789 257.1L695.789 326M695.789 257.1L599.93 303.512M424.705 390.767V469.502M424.705 390.767C446.391 379.485 513.348 350.484 513.348 350.484M424.705 469.502L513.348 426.393M695.789 326L748.357 298.679M695.789 326L599.93 379.5M513.348 257.1L599.93 303.512M513.348 257.1L424.705 298.679M599.93 303.512L513.348 350.484M599.93 303.512L669.434 350.484M599.93 303.512L599.93 379.5M424.705 298.679L513.348 350.484M513.348 350.484V426.393M513.348 350.484L584.469 399.922M655.59 449.361L748.357 390.767M655.59 449.361V539.082M655.59 449.361L584.469 399.922M655.59 449.361L589 486.5M748.357 390.767V480.489M748.357 390.767L837 337.667M748.357 390.767L669.434 350.484M748.357 390.767V298.679M748.357 480.489L655.59 539.082M748.357 480.489L837 425.557V337.667M655.59 539.082L538.086 605M513.348 426.393L589 486.5M513.348 426.393L599.93 379.5M538.086 517.11V605M538.086 517.11L455.627 469.502M538.086 517.11L589 486.5M538.086 605L455.627 550.069V469.502M837 337.667L748.357 298.679M455.627 469.502L669.434 350.484M584.469 399.922L589 486.5" stroke="#DD2D4D"/>
<path d="M322 4.5C322 6.98528 319.538 9 316.5 9C313.462 9 311 6.98528 311 4.5C311 2.01472 313.462 0 316.5 0C319.538 0 322 2.01472 322 4.5Z" fill="#333333"/>
<g clip-path="url(#clip0_0_1)">
<path d="M6.5 165C9.53757 165 12 162.985 12 160.5C12 158.015 9.53757 156 6.5 156C3.46243 156 1 158.015 1 160.5C1 162.985 3.46243 165 6.5 165Z" fill="#333333"/>
</g>
<g clip-path="url(#clip1_0_1)">
<path d="M105.5 204C108.538 204 111 201.985 111 199.5C111 197.015 108.538 195 105.5 195C102.462 195 100 197.015 100 199.5C100 201.985 102.462 204 105.5 204Z" fill="#333333"/>
</g>
<g clip-path="url(#clip2_0_1)">
<path d="M6.5 241C9.53757 241 12 238.985 12 236.5C12 234.015 9.53757 232 6.5 232C3.46243 232 1 234.015 1 236.5C1 238.985 3.46243 241 6.5 241Z" fill="#333333"/>
</g>
<g clip-path="url(#clip3_0_1)">
<path d="M124 310C126.761 310 129 307.985 129 305.5C129 303.015 126.761 301 124 301C121.239 301 119 303.015 119 305.5C119 307.985 121.239 310 124 310Z" fill="#333333"/>
</g>
<g clip-path="url(#clip4_0_1)">
<path d="M124 217C126.761 217 129 214.985 129 212.5C129 210.015 126.761 208 124 208C121.239 208 119 210.015 119 212.5C119 214.985 121.239 217 124 217Z" fill="#333333"/>
</g>
<g clip-path="url(#clip5_0_1)">
<path d="M328.5 310C331.538 310 334 307.985 334 305.5C334 303.015 331.538 301 328.5 301C325.462 301 323 303.015 323 305.5C323 307.985 325.462 310 328.5 310Z" fill="#333333"/>
</g>
<g clip-path="url(#clip6_0_1)">
<path d="M425.5 72C428.538 72 431 69.9853 431 67.5C431 65.0147 428.538 63 425.5 63C422.462 63 420 65.0147 420 67.5C420 69.9853 422.462 72 425.5 72Z" fill="#333333"/>
</g>
<g clip-path="url(#clip7_0_1)">
<path d="M528.5 217C531.538 217 534 214.985 534 212.5C534 210.015 531.538 208 528.5 208C525.462 208 523 210.015 523 212.5C523 214.985 525.462 217 528.5 217Z" fill="#333333"/>
</g>
<g clip-path="url(#clip8_0_1)">
<path d="M613.5 264C615.985 264 618 261.985 618 259.5C618 257.015 615.985 255 613.5 255C611.015 255 609 257.015 609 259.5C609 261.985 611.015 264 613.5 264Z" fill="#333333"/>
</g>
<g clip-path="url(#clip9_0_1)">
<path d="M425.5 358C428.538 358 431 355.985 431 353.5C431 351.015 428.538 349 425.5 349C422.462 349 420 351.015 420 353.5C420 355.985 422.462 358 425.5 358Z" fill="#333333"/>
</g>
<g clip-path="url(#clip10_0_1)">
<path d="M334.5 342C336.985 342 339 339.761 339 337C339 334.239 336.985 332 334.5 332C332.015 332 330 334.239 330 337C330 339.761 332.015 342 334.5 342Z" fill="#333333"/>
</g>
<g clip-path="url(#clip11_0_1)">
<path d="M425.5 474C428.538 474 431 471.761 431 469C431 466.239 428.538 464 425.5 464C422.462 464 420 466.239 420 469C420 471.761 422.462 474 425.5 474Z" fill="#333333"/>
</g>
<g clip-path="url(#clip12_0_1)">
<path d="M456.5 557C459.538 557 462 554.985 462 552.5C462 550.015 459.538 548 456.5 548C453.462 548 451 550.015 451 552.5C451 554.985 453.462 557 456.5 557Z" fill="#333333"/>
</g>
<g clip-path="url(#clip13_0_1)">
<path d="M834.5 342C837.538 342 840 339.761 840 337C840 334.239 837.538 332 834.5 332C831.462 332 829 334.239 829 337C829 339.761 831.462 342 834.5 342Z" fill="#333333"/>
</g>
<g clip-path="url(#clip14_0_1)">
<path d="M696 262C698.761 262 701 259.761 701 257C701 254.239 698.761 252 696 252C693.239 252 691 254.239 691 257C691 259.761 693.239 262 696 262Z" fill="#333333"/>
</g>
<g clip-path="url(#clip15_0_1)">
<path d="M749.5 305C752.538 305 755 302.985 755 300.5C755 298.015 752.538 296 749.5 296C746.462 296 744 298.015 744 300.5C744 302.985 746.462 305 749.5 305Z" fill="#2DCCC5"/>
</g>
<g clip-path="url(#clip16_0_1)">
<path d="M539.5 521C542.538 521 545 518.985 545 516.5C545 514.015 542.538 512 539.5 512C536.462 512 534 514.015 534 516.5C534 518.985 536.462 521 539.5 521Z" fill="#333333"/>
</g>
<g clip-path="url(#clip17_0_1)">
<path d="M838.5 429C841.538 429 844 426.985 844 424.5C844 422.015 841.538 420 838.5 420C835.462 420 833 422.015 833 424.5C833 426.985 835.462 429 838.5 429Z" fill="#333333"/>
</g>
<g clip-path="url(#clip18_0_1)">
<path d="M669 352C671.761 352 674 349.985 674 347.5C674 345.015 671.761 343 669 343C666.239 343 664 345.015 664 347.5C664 349.985 666.239 352 669 352Z" fill="#333333"/>
</g>
<g clip-path="url(#clip19_0_1)">
<path d="M512 358C514.761 358 517 355.985 517 353.5C517 351.015 514.761 349 512 349C509.239 349 507 351.015 507 353.5C507 355.985 509.239 358 512 358Z" fill="#333333"/>
</g>
<g clip-path="url(#clip20_0_1)">
<path d="M603.5 309C606.538 309 609 306.985 609 304.5C609 302.015 606.538 300 603.5 300C600.462 300 598 302.015 598 304.5C598 306.985 600.462 309 603.5 309Z" fill="#333333"/>
</g>
<g clip-path="url(#clip21_0_1)">
<g clip-path="url(#clip22_0_1)">
<mask id="mask0_0_1" style="mask-type:luminance" maskUnits="userSpaceOnUse" x="584" y="479" width="11" height="9">
<path d="M595 479H584V488H595V479Z" fill="white"/>
</mask>
<g mask="url(#mask0_0_1)">
<mask id="mask1_0_1" style="mask-type:luminance" maskUnits="userSpaceOnUse" x="584" y="479" width="11" height="9">
<path d="M595 479H584V488H595V479Z" fill="white"/>
</mask>
<g mask="url(#mask1_0_1)">
<path d="M589.5 488C592.538 488 595 485.985 595 483.5C595 481.015 592.538 479 589.5 479C586.462 479 584 481.015 584 483.5C584 485.985 586.462 488 589.5 488Z" fill="#333333"/>
</g>
</g>
</g>
<g clip-path="url(#clip23_0_1)">
<mask id="mask2_0_1" style="mask-type:luminance" maskUnits="userSpaceOnUse" x="578" y="393" width="11" height="10">
<path d="M589 393H578V403H589V393Z" fill="white"/>
</mask>
<g mask="url(#mask2_0_1)">
<path d="M583.5 403C586.538 403 589 400.761 589 398C589 395.239 586.538 393 583.5 393C580.462 393 578 395.239 578 398C578 400.761 580.462 403 583.5 403Z" fill="#333333"/>
</g>
</g>
<path d="M537.36 570.178L637.151 606.781M537.36 570.178L537.396 643.79L639.834 686.956M537.36 570.178L632.69 526.69L728.052 478.221L838.93 421.588C867.144 433.146 927.112 460.806 927.112 460.806M637.151 606.781L639.834 686.956M637.151 606.781L744.339 644.705M637.151 606.781C649.148 600.603 689.305 582.453 710.216 572.193M639.834 686.956L745.224 728.005M927.112 460.806L1011.25 505.718M927.112 460.806L871.582 489.925M816.053 519.045L748.346 553.557M816.053 519.045L914.817 559.457M816.053 519.045L871.582 489.925M748.346 553.557L839.256 594.648M748.346 553.557C748.346 553.557 729.96 562.506 710.216 572.193M914.817 559.457L839.256 594.648M914.817 559.457L916.305 603.361M839.256 594.648L842.421 668.458M842.421 668.458L917.191 629.515L916.305 603.361M842.421 668.458L806.138 649.85M745.224 728.005L744.339 644.705M745.224 728.005L806.67 692.826L806.138 649.85M744.339 644.705L805.607 606.873M805.607 606.873L710.216 572.193M805.607 606.873L806.138 649.85M1011.25 505.718L1010.47 598.444L958.311 624.141M1011.25 505.718L957.576 535.048M958.311 624.141L957.576 535.048M958.311 624.141L916.305 603.361M957.576 535.048L871.582 489.925" stroke="#DD2D4D"/>
<path d="M519.398 587.404C522.539 587.404 525.085 585.185 525.085 582.447C525.085 579.71 522.539 577.491 519.398 577.491C516.258 577.491 513.712 579.71 513.712 582.447C513.712 585.185 516.258 587.404 519.398 587.404Z" fill="#2DCCC5"/>
<g clip-path="url(#clip24_0_1)">
<path d="M1006.36 507.114C1009.5 507.114 1012.05 504.895 1012.05 502.158C1012.05 499.421 1009.5 497.202 1006.36 497.202C1003.22 497.202 1000.68 499.421 1000.68 502.158C1000.68 504.895 1003.22 507.114 1006.36 507.114Z" fill="#333333"/>
</g>
<path d="M745.822 656.789C748.963 656.789 751.508 654.571 751.508 651.833C751.508 649.096 748.963 646.877 745.822 646.877C742.681 646.877 740.136 649.096 740.136 651.833C740.136 654.571 742.681 656.789 745.822 656.789Z" fill="#333333"/>
<g clip-path="url(#clip25_0_1)">
<path d="M911.246 565.596C914.386 565.596 916.932 563.378 916.932 560.64C916.932 557.903 914.386 555.684 911.246 555.684C908.105 555.684 905.559 557.903 905.559 560.64C905.559 563.378 908.105 565.596 911.246 565.596Z" fill="#333333"/>
</g>
<g clip-path="url(#clip26_0_1)">
<path d="M845.076 671.658C848.217 671.658 850.763 669.439 850.763 666.702C850.763 663.965 848.217 661.746 845.076 661.746C841.936 661.746 839.39 663.965 839.39 666.702C839.39 669.439 841.936 671.658 845.076 671.658Z" fill="#333333"/>
</g>
<g clip-path="url(#clip27_0_1)">
<path d="M960.873 627.053C964.013 627.053 966.559 624.834 966.559 622.096C966.559 619.359 964.013 617.14 960.873 617.14C957.732 617.14 955.186 619.359 955.186 622.096C955.186 624.834 957.732 627.053 960.873 627.053Z" fill="#333333"/>
</g>
<path d="M536.5 647C539.538 647 542 644.761 542 642C542 639.239 539.538 637 536.5 637C533.462 637 531 639.239 531 642C531 644.761 533.462 647 536.5 647Z" fill="#333333"/>
</g>
<defs>
<filter id="filter0_d_0_1" x="0.5" y="3.44675" width="411" height="285.114" filterUnits="userSpaceOnUse" color-interpolation-filters="sRGB">
<feFlood flood-opacity="0" result="BackgroundImageFix"/>
<feColorMatrix in="SourceAlpha" type="matrix" values="0 0 0 0 0 0 0 0 0 0 0 0 0 0 0 0 0 0 127 0" result="hardAlpha"/>
<feOffset dy="4"/>
<feGaussianBlur stdDeviation="2"/>
<feComposite in2="hardAlpha" operator="out"/>
<feColorMatrix type="matrix" values="0 0 0 0 0 0 0 0 0 0 0 0 0 0 0 0 0 0 0.25 0"/>
<feBlend mode="normal" in2="BackgroundImageFix" result="effect1_dropShadow_0_1"/>
<feBlend mode="normal" in="SourceGraphic" in2="effect1_dropShadow_0_1" result="shape"/>
</filter>
<clipPath id="clip0_0_1">
<rect width="11" height="9" fill="white" transform="translate(1 156)"/>
</clipPath>
<clipPath id="clip1_0_1">
<rect width="11" height="9" fill="white" transform="translate(100 195)"/>
</clipPath>
<clipPath id="clip2_0_1">
<rect width="11" height="9" fill="white" transform="translate(1 232)"/>
</clipPath>
<clipPath id="clip3_0_1">
<rect width="10" height="9" fill="white" transform="translate(119 301)"/>
</clipPath>
<clipPath id="clip4_0_1">
<rect width="10" height="9" fill="white" transform="translate(119 208)"/>
</clipPath>
<clipPath id="clip5_0_1">
<rect width="11" height="9" fill="white" transform="translate(323 301)"/>
</clipPath>
<clipPath id="clip6_0_1">
<rect width="11" height="9" fill="white" transform="translate(420 63)"/>
</clipPath>
<clipPath id="clip7_0_1">
<rect width="11" height="9" fill="white" transform="translate(523 208)"/>
</clipPath>
<clipPath id="clip8_0_1">
<rect width="9" height="9" fill="white" transform="translate(609 255)"/>
</clipPath>
<clipPath id="clip9_0_1">
<rect width="11" height="9" fill="white" transform="translate(420 349)"/>
</clipPath>
<clipPath id="clip10_0_1">
<rect width="9" height="10" fill="white" transform="translate(330 332)"/>
</clipPath>
<clipPath id="clip11_0_1">
<rect width="11" height="10" fill="white" transform="translate(420 464)"/>
</clipPath>
<clipPath id="clip12_0_1">
<rect width="11" height="9" fill="white" transform="translate(451 548)"/>
</clipPath>
<clipPath id="clip13_0_1">
<rect width="11" height="10" fill="white" transform="translate(829 332)"/>
</clipPath>
<clipPath id="clip14_0_1">
<rect width="10" height="10" fill="white" transform="translate(691 252)"/>
</clipPath>
<clipPath id="clip15_0_1">
<rect width="11" height="9" fill="white" transform="translate(744 296)"/>
</clipPath>
<clipPath id="clip16_0_1">
<rect width="11" height="9" fill="white" transform="translate(534 512)"/>
</clipPath>
<clipPath id="clip17_0_1">
<rect width="11" height="9" fill="white" transform="translate(833 420)"/>
</clipPath>
<clipPath id="clip18_0_1">
<rect width="10" height="9" fill="white" transform="translate(664 343)"/>
</clipPath>
<clipPath id="clip19_0_1">
<rect width="10" height="9" fill="white" transform="translate(507 349)"/>
</clipPath>
<clipPath id="clip20_0_1">
<rect width="11" height="9" fill="white" transform="translate(598 300)"/>
</clipPath>
<clipPath id="clip21_0_1">
<rect width="615" height="412" fill="white" transform="translate(523 393)"/>
</clipPath>
<clipPath id="clip22_0_1">
<rect width="11" height="9" fill="white" transform="translate(584 479)"/>
</clipPath>
<clipPath id="clip23_0_1">
<rect width="11" height="10" fill="white" transform="translate(578 393)"/>
</clipPath>
<clipPath id="clip24_0_1">
<rect width="11.3729" height="9.91228" fill="white" transform="translate(1000.68 497.202)"/>
</clipPath>
<clipPath id="clip25_0_1">
<rect width="11.3729" height="9.91228" fill="white" transform="translate(905.559 555.684)"/>
</clipPath>
<clipPath id="clip26_0_1">
<rect width="11.3729" height="9.91228" fill="white" transform="translate(839.39 661.746)"/>
</clipPath>
<clipPath id="clip27_0_1">
<rect width="11.3729" height="9.91228" fill="white" transform="translate(955.186 617.14)"/>
</clipPath>
</defs>
</svg>
