<svg width="1123" height="994" viewBox="0 0 1123 994" fill="none" xmlns="http://www.w3.org/2000/svg">
<g filter="url(#filter0_d_0_1)">
<path d="M5.68065 519.938L41.5549 414.452M5.68065 519.938L105.264 478.161M5.68065 519.938L60.3756 574.633L162.132 535.029M41.5549 414.452L134.679 378.508M41.5549 414.452L72.5261 316.355M134.679 378.508L105.264 478.161M134.679 378.508L167.481 276.095M134.679 378.508L155.581 399.41M134.679 378.508C195.241 200.601 196.081 196.115 188.931 216.11M105.264 478.161C115.209 488.105 162.132 535.029 162.132 535.029M105.264 478.161L162.132 535.029M105.264 478.161C131.036 400.678 156.547 310.233 167.481 276.095M105.264 478.161L210.381 156.124M162.132 535.029L168.411 510.656M167.481 276.095L72.5261 316.355M167.481 276.095L185.707 294.321M167.481 276.095L188.931 216.11M72.5261 316.355L116.014 190.825L210.381 156.124M210.381 156.124L188.931 216.11M210.381 156.124L229.649 175.392" stroke="#DD2D4D" shape-rendering="crispEdges"/>
</g>
<path d="M128.727 502.32L241.339 452.999M128.727 502.32L195.845 565.416L308.484 516.12M128.727 502.32L168.821 372.753M241.339 452.999L277.08 344.509M241.339 452.999L334.489 417.932M241.339 452.999L308.484 516.12M327.527 150.578L228.972 180.723L199.092 271.195M327.527 150.578L304.48 241.021M327.527 150.578L435.372 115.885M304.48 241.021L277.08 344.509M304.48 241.021L371.416 314.63M304.48 241.021L405.743 207.644M304.48 241.021L199.092 271.195M199.092 271.195L168.821 372.753M168.821 372.753L277.08 344.509M277.08 344.509L371.416 314.63M371.416 314.63C363.116 351.357 334.489 417.932 334.489 417.932M371.416 314.63L334.489 417.932M371.416 314.63L438.561 377.751L398.365 477.98M371.416 314.63L472.861 270.739M334.489 417.932L398.365 477.98M398.365 477.98L308.484 516.12M435.372 115.885L405.743 207.644M435.372 115.885L500.603 177.207L472.861 270.739M405.743 207.644L472.861 270.739" stroke="#DD2D4D"/>
<path d="M341.517 424.191L443.202 397.601M341.517 424.191L403.665 486.339L498.877 453.275M341.517 424.191L374.215 343.19L378.086 332.485M540.371 111.399C540.371 111.399 475.902 123.215 446.703 129.972L411.366 240.404M540.371 111.399L589.09 160.118M540.371 111.399L505.406 211.999M443.202 397.601L498.877 453.275M443.202 397.601C450.559 374.289 477.398 306.436 477.398 306.436M498.877 453.275L531.074 360.112M589.09 160.118L606.942 103.629M589.09 160.118L559.138 265.731M411.366 240.404L505.406 211.999M411.366 240.404L378.086 332.485M505.406 211.999L477.398 306.436M505.406 211.999L587.767 196.067M505.406 211.999L559.138 265.731M378.086 332.485L477.398 306.436M477.398 306.436L531.074 360.112M477.398 306.436L562.647 291.104M647.895 275.772L672.059 168.745M647.895 275.772L711.337 339.215M647.895 275.772L562.647 291.104M647.895 275.772L627.07 349.12M672.059 168.745L735.501 232.187M672.059 168.745L697.191 68.5166M672.059 168.745L587.767 196.067M672.059 168.745L606.942 103.629M735.501 232.187L711.337 339.215M735.501 232.187L759.339 130.665L697.191 68.5166M711.337 339.215L674.86 468.914M531.074 360.112L627.07 349.12M531.074 360.112L559.138 265.731M612.713 406.766L674.86 468.914M612.713 406.766L520.742 431.41M612.713 406.766L627.07 349.12M674.86 468.914L577.711 488.379L520.742 431.41M697.191 68.5166L606.942 103.629M520.742 431.41L587.767 196.067M562.647 291.104L627.07 349.12" stroke="#DD2D4D"/>
<g clip-path="url(#clip0_0_1)">
<path d="M9.89949 522.899C11.8521 520.947 12.0104 517.939 10.253 516.182C8.49569 514.425 5.48816 514.583 3.53553 516.536C1.58291 518.488 1.42462 521.496 3.18198 523.253C4.93934 525.01 7.94687 524.852 9.89949 522.899Z" fill="#333333"/>
</g>
<g clip-path="url(#clip1_0_1)">
<path d="M410.253 212.253C412.401 210.105 412.718 206.939 410.96 205.182C409.203 203.425 406.037 203.741 403.889 205.889C401.741 208.037 401.425 211.203 403.182 212.96C404.939 214.718 408.105 214.401 410.253 212.253Z" fill="#333333"/>
</g>
<g clip-path="url(#clip2_0_1)">
<path d="M482.253 312.253C484.401 310.105 484.718 306.939 482.96 305.182C481.203 303.425 478.037 303.741 475.889 305.889C473.741 308.037 473.425 311.203 475.182 312.96C476.939 314.718 480.105 314.401 482.253 312.253Z" fill="#333333"/>
</g>
<g clip-path="url(#clip3_0_1)">
<path d="M526.546 439.546C528.303 437.789 528.303 434.939 526.546 433.182C524.789 431.425 521.939 431.425 520.182 433.182C518.425 434.939 518.425 437.789 520.182 439.546C521.939 441.303 524.789 441.303 526.546 439.546Z" fill="#333333"/>
</g>
<g clip-path="url(#clip4_0_1)">
<path d="M235.253 185.253C237.401 183.105 237.718 179.939 235.96 178.182C234.203 176.425 231.037 176.741 228.889 178.889C226.741 181.037 226.425 184.203 228.182 185.96C229.939 187.718 233.105 187.401 235.253 185.253Z" fill="#333333"/>
</g>
<g clip-path="url(#clip5_0_1)">
<path d="M200.253 569.253C202.01 567.496 201.852 564.488 199.899 562.536C197.947 560.583 194.939 560.425 193.182 562.182C191.425 563.939 191.583 566.947 193.536 568.899C195.488 570.852 198.496 571.01 200.253 569.253Z" fill="#333333"/>
</g>
<g clip-path="url(#clip6_0_1)">
<path d="M213.607 159.607C215.559 157.654 215.559 154.488 213.607 152.536C211.654 150.583 208.488 150.583 206.536 152.536C204.583 154.488 204.583 157.654 206.536 159.607C208.488 161.559 211.654 161.559 213.607 159.607Z" fill="#333333"/>
</g>
<g clip-path="url(#clip7_0_1)">
<path d="M404.253 482.253C406.401 480.105 406.718 476.939 404.96 475.182C403.203 473.425 400.037 473.741 397.889 475.889C395.741 478.037 395.425 481.203 397.182 482.96C398.939 484.718 402.105 484.401 404.253 482.253Z" fill="#333333"/>
</g>
<path d="M865.253 349.253C867.401 347.105 867.718 343.939 865.96 342.182C864.203 340.425 861.037 340.741 858.889 342.889C856.741 345.037 856.425 348.203 858.182 349.96C859.939 351.718 863.105 351.401 865.253 349.253Z" fill="#333333"/>
<g clip-path="url(#clip8_0_1)">
<path d="M540.899 117.9C542.852 115.947 543.01 112.939 541.253 111.182C539.496 109.425 536.488 109.583 534.536 111.536C532.583 113.488 532.425 116.496 534.182 118.253C535.939 120.01 538.947 119.852 540.899 117.9Z" fill="#333333"/>
</g>
<g clip-path="url(#clip9_0_1)">
<path d="M116.899 198.9C118.852 196.947 119.01 193.939 117.253 192.182C115.496 190.425 112.488 190.583 110.536 192.536C108.583 194.488 108.425 197.496 110.182 199.253C111.939 201.01 114.947 200.852 116.899 198.9Z" fill="#333333"/>
</g>
<g clip-path="url(#clip10_0_1)">
<path d="M612.253 110.253C614.401 108.105 614.718 104.939 612.96 103.182C611.203 101.425 608.037 101.741 605.889 103.889C603.741 106.037 603.425 109.203 605.182 110.96C606.939 112.718 610.105 112.401 612.253 110.253Z" fill="#333333"/>
</g>
<g clip-path="url(#clip11_0_1)">
<mask id="mask0_0_1" style="mask-type:luminance" maskUnits="userSpaceOnUse" x="327" y="411" width="11" height="10">
<path d="M338 411H327V421H338V411Z" fill="white"/>
</mask>
<g mask="url(#mask0_0_1)">
<path d="M332.5 421C335.538 421 338 418.761 338 416C338 413.239 335.538 411 332.5 411C329.462 411 327 413.239 327 416C327 418.761 329.462 421 332.5 421Z" fill="#333333"/>
</g>
</g>
<mask id="mask1_0_1" style="mask-type:luminance" maskUnits="userSpaceOnUse" x="424" y="117" width="11" height="9">
<path d="M435 117H424V126H435V117Z" fill="white"/>
</mask>
<g mask="url(#mask1_0_1)">
<mask id="mask2_0_1" style="mask-type:luminance" maskUnits="userSpaceOnUse" x="424" y="117" width="11" height="9">
<path d="M435 117H424V126H435V117Z" fill="white"/>
</mask>
<g mask="url(#mask2_0_1)">
<path d="M429.5 126C432.538 126 435 123.985 435 121.5C435 119.015 432.538 117 429.5 117C426.462 117 424 119.015 424 121.5C424 123.985 426.462 126 429.5 126Z" fill="#333333"/>
</g>
</g>
<path d="M489.686 452.912C492.827 452.912 495.373 450.693 495.373 447.956C495.373 445.219 492.827 443 489.686 443C486.546 443 484 445.219 484 447.956C484 450.693 486.546 452.912 489.686 452.912Z" fill="#333333"/>
<g clip-path="url(#clip12_0_1)">
<path d="M795.686 301.912C798.827 301.912 801.373 299.693 801.373 296.956C801.373 294.219 798.827 292 795.686 292C792.546 292 790 294.219 790 296.956C790 299.693 792.546 301.912 795.686 301.912Z" fill="#333333"/>
</g>
<g clip-path="url(#clip13_0_1)">
<path d="M623.686 352.912C626.827 352.912 629.373 350.693 629.373 347.956C629.373 345.219 626.827 343 623.686 343C620.546 343 618 345.219 618 347.956C618 350.693 620.546 352.912 623.686 352.912Z" fill="#333333"/>
</g>
<g clip-path="url(#clip14_0_1)">
<path d="M101.686 485.912C104.827 485.912 107.373 483.693 107.373 480.956C107.373 478.219 104.827 476 101.686 476C98.5459 476 96 478.219 96 480.956C96 483.693 98.5459 485.912 101.686 485.912Z" fill="#333333"/>
</g>
<path d="M607.403 405.466L699.587 352.55M607.403 405.466L663.816 452.755L762.729 402.029M607.403 405.466L635.366 304.485L659.534 200.278L687.422 78.9381C714.411 64.7532 774.146 36.5953 774.146 36.5953M699.587 352.55L762.729 402.029M699.587 352.55L797.537 294.815M699.587 352.55C702.565 339.388 714.474 296.959 720.056 274.345M762.729 402.029L861.917 347.682M774.146 36.5953L862.633 1.01261M774.146 36.5953L760.76 97.8508M747.373 159.106L730.289 233.157M747.373 159.106L841.815 109.425M747.373 159.106L760.76 97.8508M730.289 233.157L820.203 189.929M730.289 233.157C730.289 233.157 725.326 252.994 720.056 274.345M841.815 109.425L820.203 189.929M841.815 109.425L876.403 136.506M820.203 189.929L878.779 234.948M878.779 234.948L897.008 152.639L876.403 136.506M878.779 234.948L841.202 250.781M861.917 347.682L797.537 294.815M861.917 347.682L874.466 277.999L841.202 250.781M797.537 294.815L807.939 223.563M807.939 223.563L720.056 274.345M807.939 223.563L841.202 250.781M862.633 1.01261L933.166 61.2098L919.323 117.685M862.633 1.01261L850.601 60.9802M919.323 117.685L850.601 60.9802M919.323 117.685L876.403 136.506M850.601 60.9802L760.76 97.8508" stroke="#DD2D4D"/>
<defs>
<filter id="filter0_d_0_1" x="1.10712" y="155.545" width="232.895" height="427.672" filterUnits="userSpaceOnUse" color-interpolation-filters="sRGB">
<feFlood flood-opacity="0" result="BackgroundImageFix"/>
<feColorMatrix in="SourceAlpha" type="matrix" values="0 0 0 0 0 0 0 0 0 0 0 0 0 0 0 0 0 0 127 0" result="hardAlpha"/>
<feOffset dy="4"/>
<feGaussianBlur stdDeviation="2"/>
<feComposite in2="hardAlpha" operator="out"/>
<feColorMatrix type="matrix" values="0 0 0 0 0 0 0 0 0 0 0 0 0 0 0 0 0 0 0.25 0"/>
<feBlend mode="normal" in2="BackgroundImageFix" result="effect1_dropShadow_0_1"/>
<feBlend mode="normal" in="SourceGraphic" in2="effect1_dropShadow_0_1" result="shape"/>
</filter>
<clipPath id="clip0_0_1">
<rect width="10" height="9" fill="white" transform="translate(0 520.071) rotate(-45)"/>
</clipPath>
<clipPath id="clip1_0_1">
<rect width="11" height="9" fill="white" transform="translate(400 209.778) rotate(-45)"/>
</clipPath>
<clipPath id="clip2_0_1">
<rect width="11" height="9" fill="white" transform="translate(472 309.778) rotate(-45)"/>
</clipPath>
<clipPath id="clip3_0_1">
<rect width="9" height="9" fill="white" transform="translate(517 436.364) rotate(-45)"/>
</clipPath>
<clipPath id="clip4_0_1">
<rect width="11" height="9" fill="white" transform="translate(225 182.778) rotate(-45)"/>
</clipPath>
<clipPath id="clip5_0_1">
<rect width="9" height="10" fill="white" transform="translate(190 565.364) rotate(-45)"/>
</clipPath>
<clipPath id="clip6_0_1">
<rect width="10" height="10" fill="white" transform="translate(203 156.071) rotate(-45)"/>
</clipPath>
<clipPath id="clip7_0_1">
<rect width="11" height="9" fill="white" transform="translate(394 479.778) rotate(-45)"/>
</clipPath>
<clipPath id="clip8_0_1">
<rect width="10" height="9" fill="white" transform="translate(531 115.071) rotate(-45)"/>
</clipPath>
<clipPath id="clip9_0_1">
<rect width="10" height="9" fill="white" transform="translate(107 196.071) rotate(-45)"/>
</clipPath>
<clipPath id="clip10_0_1">
<rect width="11" height="9" fill="white" transform="translate(602 107.778) rotate(-45)"/>
</clipPath>
<clipPath id="clip11_0_1">
<rect width="11" height="10" fill="white" transform="translate(327 411)"/>
</clipPath>
<clipPath id="clip12_0_1">
<rect width="11.3729" height="9.91228" fill="white" transform="translate(790 292)"/>
</clipPath>
<clipPath id="clip13_0_1">
<rect width="11.3729" height="9.91228" fill="white" transform="translate(618 343)"/>
</clipPath>
<clipPath id="clip14_0_1">
<rect width="11.3729" height="9.91228" fill="white" transform="translate(96 476)"/>
</clipPath>
</defs>
</svg>
